<svg xmlns="http://www.w3.org/2000/svg" width="48" height="45.785" viewBox="0 0 48 45.785">
  <g id="instagram_icon" transform="translate(-148 -45)">
    <path id="instagram_icon-2" data-name="instagram_icon" d="M7,0A7.008,7.008,0,0,0,0,7V17a7.009,7.009,0,0,0,7,7H17a7.009,7.009,0,0,0,7-7V7a7.008,7.008,0,0,0-7-7ZM19.2,3.84a.96.96,0,1,1-.96.96.96.96,0,0,1,.96-.96M12,5.76A6.24,6.24,0,1,1,5.76,12,6.246,6.246,0,0,1,12,5.76m0,1.92A4.32,4.32,0,1,0,16.32,12,4.32,4.32,0,0,0,12,7.68" transform="translate(160 56)" fill="#898989"/>
    <rect id="facebook_icon_tap_area" data-name="facebook_icon tap area" width="48" height="45.785" transform="translate(148 45)" fill="none"/>
  </g>
</svg>
