<svg xmlns="http://www.w3.org/2000/svg" width="48" height="45.785" viewBox="0 0 48 45.785">
  <g id="linkedin_icon" transform="translate(-148 -45)">
    <path id="linkedin_iocn" d="M.281,6.834H5V21.023H.281Zm16.286-.327a4.681,4.681,0,0,0-4.251,2.343V8.9h-.031l.031-.046V6.839H7.6c.061,1.33,0,14.184,0,14.184h4.716V13.1a3.263,3.263,0,0,1,.159-1.151A2.578,2.578,0,0,1,14.9,10.225c1.708,0,2.389,1.3,2.389,3.207v7.586H22V12.885c0-4.353-2.327-6.384-5.432-6.379M2.67,0a2.457,2.457,0,1,0-.061,4.9h.031A2.458,2.458,0,1,0,2.67,0" transform="translate(161 57)" fill="#898989"/>
    <rect id="facebook_icon_tap_area" data-name="facebook_icon tap area" width="48" height="45.785" transform="translate(148 45)" fill="none"/>
  </g>
</svg>
